<?xml version="1.0" encoding="UTF-8"?>
<svg width="221px" height="36px" viewBox="0 0 221 36" version="1.1" xmlns="http://www.w3.org/2000/svg" xmlns:xlink="http://www.w3.org/1999/xlink">
    <!-- Generator: Sketch 50.2 (55047) - http://www.bohemiancoding.com/sketch -->
    <title>logo_c_control</title>
    <desc>Created with Sketch.</desc>
    <defs>
        <polygon id="path-1" points="0 5.49320162e-05 36.4476353 5.49320162e-05 36.4476353 35.9998308 0 35.9998308"></polygon>
        <polygon id="path-3" points="0 36 220.504196 36 220.504196 0 0 0"></polygon>
    </defs>
    <g id="Symbols" stroke="none" stroke-width="1" fill="none" fill-rule="evenodd">
        <g id="Top_Bar-Copy-3" transform="translate(-20.000000, -18.000000)">
            <g id="logo_c_control" transform="translate(20.000000, 18.000000)">
                <polygon id="Fill-1" fill="#FFFFFF" points="132.453052 27.3222857 133.61012 27.3222857 133.61012 8.67657143 132.453052 8.67657143"></polygon>
                <g id="Group-42">
                    <path d="M15.8647916,12.5106286 C12.8002969,13.7957714 11.3655325,17.3032 12.6666555,20.3300571 C13.9672,23.3563429 17.5182419,24.7740571 20.5827366,23.4894857 C23.6472314,22.2043429 25.0819958,18.6969143 23.7814513,15.6700571 C22.4809068,12.6432 18.9292864,11.2260571 15.8647916,12.5106286 M17.0484723,15.2643429 C18.5752236,14.6243429 20.3449592,15.3306286 20.9934958,16.8386286 C21.6414539,18.3472 20.9263859,20.0946286 19.399056,20.7357714 C17.8723047,21.3757714 16.1025691,20.6694857 15.454611,19.1614857 C14.8060743,17.6529143 15.5211424,15.9049143 17.0484723,15.2643429" id="Fill-2" fill="#FFFFFF"></path>
                    <g id="Group-6">
                        <mask id="mask-2" fill="white">
                            <use xlink:href="#path-1"></use>
                        </mask>
                        <g id="Clip-5"></g>
                        <path d="M11.1031673,1.4308 C1.85356518,5.30908571 -2.47791911,15.8965143 1.44859136,25.0330857 C5.37510183,34.1696571 16.0941804,38.4468 25.344361,34.5690857 C34.5939631,30.6908 38.9254474,20.1033714 34.9989369,10.9668 C31.073005,1.83022857 20.3533479,-2.44691429 11.1031673,1.4308 M12.3886699,4.42222857 C19.9686228,1.24451429 28.752505,4.75022857 31.9703113,12.2365143 C35.187539,19.7233714 31.6388113,28.3993714 24.0588584,31.5776571 C16.4789055,34.7553714 7.6950233,31.2502286 4.47721702,23.7633714 C1.25998927,16.2765143 4.80929555,7.60051429 12.3886699,4.42222857" id="Fill-4" fill="#FFFFFF" mask="url(#mask-2)"></path>
                    </g>
                    <path d="M9.99949791,14.9174286 L10.0110686,14.9271429 C10.8401079,12.7671429 12.5311628,10.9345714 14.8568696,9.98257143 C19.3329874,8.15 24.4836759,10.2562857 26.3390346,14.6768571 C26.3743251,14.762 26.405566,14.8465714 26.4379639,14.9311429 L29.3526183,13.7397143 C29.3190634,13.6545714 29.288401,13.5694286 29.2525319,13.4837143 C26.7312806,7.47628571 19.7321759,4.61457143 13.6494691,7.10428571 C10.5213356,8.38485714 8.23901885,10.8362857 7.09930681,13.7317143 L9.99949791,14.9174286 Z" id="Fill-7" fill="#FFFFFF"></path>
                    <path d="M26.4309058,21.0764571 C25.601288,23.2347429 23.9108115,25.0656 21.5856832,26.0170286 C17.110144,27.8501714 11.9594555,25.7438857 10.1040969,21.3233143 C10.0699634,21.2410286 10.0398796,21.1593143 10.0080602,21.0764571 L7.09687696,22.2758857 C7.1281178,22.3553143 7.1570445,22.4364571 7.19059948,22.5164571 C9.71185079,28.5238857 16.7109555,31.3856 22.7936623,28.8958857 C25.9223743,27.6147429 28.2046911,25.1621714 29.3444031,22.2667429 L26.4309058,21.0764571 Z" id="Fill-9" fill="#FFFFFF"></path>
                    <path d="M49.3833178,21.9006857 C50.737666,21.9006857 51.8444016,21.3715429 52.7041031,20.3132571 L54.4703675,22.1104 C53.0685796,23.6692571 51.4174435,24.4481143 49.5158021,24.4481143 C47.6135822,24.4481143 46.0474906,23.8549714 44.8175272,22.6686857 C43.5864068,21.4824 42.9720037,19.9846857 42.9720037,18.1761143 C42.9720037,16.3675429 43.598556,14.8589714 44.8528178,13.6492571 C46.1070796,12.4389714 47.6401948,11.8344 49.453899,11.8344 C51.4793466,11.8344 53.1750298,12.5966857 54.5409487,14.1201143 L52.8273309,16.0389714 C51.9560586,14.9686857 50.8730429,14.4344 49.5777052,14.4344 C48.5415508,14.4344 47.6552366,14.7686857 46.9193414,15.4366857 C46.1834461,16.1058286 45.8154984,17.0075429 45.8154984,18.1412571 C45.8154984,19.2749714 46.1626188,20.1852571 46.8580168,20.8715429 C47.5522576,21.5578286 48.3940246,21.9006857 49.3833178,21.9006857" id="Fill-11" fill="#FFFFFF"></path>
                    <path d="M61.2709194,15.7421714 L59.7163984,19.2838857 L62.8075058,19.2838857 L61.2709194,15.7421714 Z M64.9978356,24.3084571 L63.8500241,21.6741714 L58.6750372,21.6741714 L57.5260686,24.3084571 L54.5946366,24.3084571 L59.9287204,12.1130286 L62.5957623,12.1130286 L67.9298461,24.3084571 L64.9978356,24.3084571 Z" id="Fill-13" fill="#FFFFFF"></path>
                    <path d="M75.7009466,17.6093714 C76.0428602,17.3070857 76.2135277,16.8270857 76.2135277,16.1693714 C76.2135277,15.5128 76.0364963,15.0619429 75.6835906,14.8173714 C75.3301063,14.5739429 74.7122319,14.4516571 73.829389,14.4516571 L71.7622869,14.4516571 L71.7622869,18.0625143 L73.7761639,18.0625143 C74.7180173,18.0625143 75.3596115,17.9116571 75.7009466,17.6093714 M79.0217319,16.1613714 C79.0217319,18.1150857 78.2389754,19.3773714 76.6728838,19.9470857 L79.7992817,24.3088 L76.4079152,24.3088 L73.6697136,20.4179429 L71.7622869,20.4179429 L71.7622869,24.3088 L69.0073079,24.3088 L69.0073079,12.1133714 L73.6876482,12.1133714 C75.6066455,12.1133714 76.9754571,12.4333714 77.7940827,13.0733714 C78.6121298,13.7128 79.0217319,14.7419429 79.0217319,16.1613714" id="Fill-15" fill="#FFFFFF"></path>
                    <path d="M84.2501754,22.0056 L86.1402461,22.0056 C86.928788,22.0056 87.5200497,21.9096 87.9151885,21.7176 C88.3097487,21.5256 88.5064503,21.1478857 88.5064503,20.5838857 C88.5064503,20.0193143 88.2975995,19.6473143 87.8793194,19.4673143 C87.4616178,19.2867429 86.793411,19.1970286 85.8752775,19.1970286 L84.2501754,19.1970286 L84.2501754,22.0056 Z M84.2501754,17.0507429 L85.5570838,17.0507429 C86.3224843,17.0507429 86.8906047,16.9696 87.261445,16.8061714 C87.6328639,16.6438857 87.8179948,16.2918857 87.8179948,15.7513143 C87.8179948,15.2101714 87.6473272,14.8524571 87.3054136,14.6781714 C86.9640785,14.5038857 86.3872801,14.4164571 85.5744398,14.4164571 L84.2501754,14.4164571 L84.2501754,17.0507429 Z M86.8992827,24.3084571 L81.4946178,24.3084571 L81.4946178,12.1130286 L86.2987644,12.1130286 C87.1347461,12.1130286 87.8555995,12.2124571 88.4624817,12.4101714 C89.0687853,12.6084571 89.5252487,12.8753143 89.8312932,13.2124571 C90.3849503,13.8410286 90.6614895,14.5501714 90.6614895,15.3410286 C90.6614895,16.2947429 90.3496597,17.0044571 89.7254215,17.4696 C89.513678,17.6330286 89.3661518,17.7341714 89.284,17.7753143 C89.2018482,17.8158857 89.054322,17.8821714 88.842,17.9753143 C89.6079791,18.1381714 90.2165969,18.4787429 90.6707461,18.9958857 C91.1237382,19.5141714 91.3505236,20.1564571 91.3505236,20.9238857 C91.3505236,21.7730286 91.0560497,22.5233143 90.4671021,23.1747429 C89.7838534,23.9307429 88.594966,24.3084571 86.8992827,24.3084571 Z" id="Fill-17" fill="#FFFFFF"></path>
                    <polygon id="Fill-19" fill="#FFFFFF" points="98.2745346 24.3085714 95.518977 24.3085714 95.518977 19.4931429 91.2447675 12.1131429 94.2300031 12.1131429 96.8964665 16.6497143 99.5640869 12.1131429 102.549323 12.1131429 98.2745346 19.4931429"></polygon>
                    <polygon id="Fill-21" fill="#FFFFFF" points="112.157616 12.1132571 114.913173 12.1132571 114.913173 24.3086857 112.157616 24.3086857 106.276239 16.6669714 106.276239 24.3086857 103.520681 24.3086857 103.520681 12.1132571 106.099207 12.1132571 112.157616 19.9641143"></polygon>
                    <polygon id="Fill-23" fill="#FFFFFF" points="126.499532 12.1132571 126.499532 14.5384 120.353187 14.5384 120.353187 17.0509714 125.881658 17.0509714 125.881658 19.3709714 120.353187 19.3709714 120.353187 21.9006857 126.69392 21.9006857 126.69392 24.3086857 117.597629 24.3086857 117.597629 12.1132571"></polygon>
                    <path d="M144.563447,22.13 C145.44629,22.13 146.240618,21.694 146.947008,20.8225714 L148.518306,22.5665714 C147.294128,23.822 145.969864,24.45 144.546091,24.45 C143.121741,24.45 141.917811,24.0048571 140.93546,23.1157143 C139.951953,22.226 139.460777,21.0637143 139.460777,19.6277143 C139.460777,18.1917143 139.957738,17.0231429 140.952816,16.122 C141.947316,15.2214286 143.127526,14.7705714 144.492866,14.7705714 C145.175536,14.7705714 145.866885,14.91 146.567489,15.1894286 C147.267515,15.4682857 147.882497,15.8808571 148.412434,16.4277143 L147.034945,18.2065714 C146.7289,17.846 146.355746,17.5671429 145.914324,17.3694286 C145.472324,17.1711429 145.033796,17.0722857 144.598738,17.0722857 C143.903919,17.0722857 143.306871,17.2968571 142.80644,17.7437143 C142.306586,18.1917143 142.056081,18.814 142.056081,19.61 C142.056081,20.4065714 142.306586,21.0254286 142.80644,21.4677143 C143.306871,21.9094286 143.892348,22.13 144.563447,22.13" id="Fill-25" fill="#FFFFFF"></path>
                    <path d="M161.23136,21.9034857 C162.584551,21.9034857 163.691287,21.3743429 164.55041,20.3166286 L166.316096,22.1126286 C164.915465,23.6709143 163.264907,24.4497714 161.363844,24.4497714 C159.462203,24.4497714 157.89669,23.8566286 156.666726,22.6709143 C155.436763,21.4852 154.821781,19.9880571 154.821781,18.1800571 C154.821781,16.3720571 155.448912,14.8640571 156.702017,13.6543429 C157.9557,12.4452 159.488815,11.8412 161.301941,11.8412 C163.326232,11.8412 165.021336,12.6029143 166.386677,14.1257714 L164.674216,16.0440571 C163.802944,14.9743429 162.719928,14.4389143 161.425169,14.4389143 C160.389593,14.4389143 159.503857,14.7737714 158.767962,15.4417714 C158.032645,16.1109143 157.664698,17.0114857 157.664698,18.1452 C157.664698,19.2789143 158.011818,20.1886286 158.706637,20.8743429 C159.400878,21.5606286 160.242645,21.9034857 161.23136,21.9034857" id="Fill-27" fill="#FFFFFF"></path>
                    <path d="M170.147784,19.6188571 C170.147784,20.3862857 170.368784,21.0114286 170.810206,21.4937143 C171.251049,21.9765714 171.816276,22.2177143 172.504732,22.2177143 C173.193766,22.2177143 173.758415,21.9765714 174.200415,21.4937143 C174.641837,21.0114286 174.86168,20.3862857 174.86168,19.6188571 C174.86168,18.8514286 174.641837,18.224 174.200415,17.7354286 C173.758415,17.2474286 173.193766,17.0028571 172.504732,17.0028571 C171.816276,17.0028571 171.251049,17.2474286 170.810206,17.7354286 C170.368784,18.224 170.147784,18.8514286 170.147784,19.6188571 M177.528721,19.6188571 C177.528721,20.9794286 177.052009,22.1245714 176.098007,23.0548571 C175.145161,23.9851429 173.946439,24.4497143 172.504732,24.4497143 C171.063025,24.4497143 169.86546,23.9851429 168.912036,23.0548571 C167.958612,22.1245714 167.481899,20.9794286 167.481899,19.6188571 C167.481899,18.2582857 167.958612,17.1102857 168.912036,16.1748571 C169.86546,15.2388571 171.063025,14.7708571 172.504732,14.7708571 C173.946439,14.7708571 175.145161,15.2388571 176.098007,16.1748571 C177.052009,17.1102857 177.528721,18.2582857 177.528721,19.6188571" id="Fill-29" fill="#FFFFFF"></path>
                    <path d="M182.313371,19.0781143 L182.313371,24.3101143 L179.664843,24.3101143 L179.664843,14.9272571 L182.313371,14.9272571 L182.313371,15.9741143 C183.113484,15.1718286 184.013683,14.7706857 185.014547,14.7706857 C186.014832,14.7706857 186.853707,15.1192571 187.53117,15.8169714 C188.207476,16.5146857 188.545919,17.4449714 188.545919,18.6072571 L188.545919,24.3101143 L185.89739,24.3101143 L185.89739,19.0084 C185.89739,17.5666857 185.362246,16.8461143 184.290801,16.8461143 C183.760864,16.8461143 183.298615,17.0352571 182.904633,17.4129714 C182.510073,17.7906857 182.313371,18.3461143 182.313371,19.0781143" id="Fill-31" fill="#FFFFFF"></path>
                    <path d="M194.142773,16.8113714 L194.142773,21.0136571 C194.142773,21.3742286 194.237074,21.6565143 194.425097,21.8599429 C194.613121,22.0633714 194.837013,22.1650857 195.096197,22.1650857 C195.590843,22.1650857 196.008545,21.9439429 196.34988,21.5022286 L197.338595,23.3336571 C196.514762,24.0776571 195.646382,24.4496571 194.734034,24.4496571 C193.821686,24.4496571 193.0505,24.1536571 192.421055,23.5605143 C191.79161,22.9673714 191.476888,22.1593714 191.476888,21.1359429 L191.476888,16.8113714 L190.364367,16.8113714 L190.364367,14.9273714 L191.476888,14.9273714 L191.476888,12.1199429 L194.142773,12.1199429 L194.142773,14.9273714 L196.438396,14.9273714 L196.438396,16.8113714 L194.142773,16.8113714 Z" id="Fill-33" fill="#FFFFFF"></path>
                    <path d="M203.924221,17.2293714 C203.135679,17.2293714 202.54731,17.5059429 202.158535,18.0579429 C201.770339,18.6105143 201.575951,19.3396571 201.575951,20.2465143 L201.575951,24.3105143 L198.927423,24.3105143 L198.927423,14.9276571 L201.575951,14.9276571 L201.575951,16.1659429 C201.917286,15.7825143 202.344245,15.4568 202.856247,15.1893714 C203.36825,14.9219429 203.88893,14.7825143 204.418289,14.7705143 L204.436802,17.2293714 L203.924221,17.2293714 Z" id="Fill-35" fill="#FFFFFF"></path>
                    <path d="M208.338378,19.6188571 C208.338378,20.3862857 208.559378,21.0114286 209.000799,21.4937143 C209.441642,21.9765714 210.00687,22.2177143 210.695325,22.2177143 C211.384359,22.2177143 211.949009,21.9765714 212.391009,21.4937143 C212.83243,21.0114286 213.052273,20.3862857 213.052273,19.6188571 C213.052273,18.8514286 212.83243,18.224 212.391009,17.7354286 C211.949009,17.2474286 211.384359,17.0028571 210.695325,17.0028571 C210.00687,17.0028571 209.441642,17.2474286 209.000799,17.7354286 C208.559378,18.224 208.338378,18.8514286 208.338378,19.6188571 M215.719315,19.6188571 C215.719315,20.9794286 215.242603,22.1245714 214.2886,23.0548571 C213.335755,23.9851429 212.137032,24.4497143 210.695325,24.4497143 C209.253619,24.4497143 208.056053,23.9851429 207.102629,23.0548571 C206.149205,22.1245714 205.672493,20.9794286 205.672493,19.6188571 C205.672493,18.2582857 206.149205,17.1102857 207.102629,16.1748571 C208.056053,15.2388571 209.253619,14.7708571 210.695325,14.7708571 C212.137032,14.7708571 213.335755,15.2388571 214.2886,16.1748571 C215.242603,17.1102857 215.719315,18.2582857 215.719315,19.6188571" id="Fill-37" fill="#FFFFFF"></path>
                    <mask id="mask-4" fill="white">
                        <use xlink:href="#path-3"></use>
                    </mask>
                    <g id="Clip-40"></g>
                    <polygon id="Fill-39" fill="#FFFFFF" mask="url(#mask-4)" points="217.855668 24.3102857 220.504196 24.3102857 220.504196 11.3697143 217.855668 11.3697143"></polygon>
                    <polygon id="Fill-41" fill="#FFFFFF" mask="url(#mask-4)" points="150.613814 20.6582857 153.183084 20.6582857 153.183084 18.1211429 150.613814 18.1211429"></polygon>
                </g>
            </g>
        </g>
    </g>
</svg>